<svg width="24" height="24" viewBox="0 0 24 24" fill="none" xmlns="http://www.w3.org/2000/svg">
<path d="M5.72578 8.29995C5.80911 8.29995 5.89645 8.27495 5.98778 8.22495C6.07978 8.17495 6.14245 8.09995 6.17578 7.99995L6.97578 6.24995L8.72578 5.44995C8.82578 5.41662 8.90078 5.35395 8.95078 5.26195C9.00078 5.17062 9.02578 5.08328 9.02578 4.99995C9.02578 4.91662 9.00078 4.82895 8.95078 4.73695C8.90078 4.64562 8.82578 4.58328 8.72578 4.54995L6.97578 3.74995L6.17578 1.99995C6.14245 1.89995 6.07978 1.82495 5.98778 1.77495C5.89645 1.72495 5.80911 1.69995 5.72578 1.69995C5.64245 1.69995 5.55478 1.72495 5.46278 1.77495C5.37145 1.82495 5.30911 1.89995 5.27578 1.99995L4.47578 3.74995L2.72578 4.54995C2.62578 4.58328 2.55078 4.64562 2.50078 4.73695C2.45078 4.82895 2.42578 4.91662 2.42578 4.99995C2.42578 5.08328 2.45078 5.17062 2.50078 5.26195C2.55078 5.35395 2.62578 5.41662 2.72578 5.44995L4.47578 6.24995L5.27578 7.99995C5.30911 8.09995 5.37145 8.17495 5.46278 8.22495C5.55478 8.27495 5.64245 8.29995 5.72578 8.29995ZM5.72578 22.2999C5.80911 22.2999 5.89645 22.275 5.98778 22.225C6.07978 22.175 6.14245 22.1 6.17578 22L6.97578 20.25L8.72578 19.45C8.82578 19.4166 8.90078 19.3539 8.95078 19.2619C9.00078 19.1706 9.02578 19.0833 9.02578 19C9.02578 18.9166 9.00078 18.8293 8.95078 18.738C8.90078 18.646 8.82578 18.5833 8.72578 18.5499L6.97578 17.75L6.17578 16C6.14245 15.9 6.07978 15.825 5.98778 15.775C5.89645 15.725 5.80911 15.7 5.72578 15.7C5.64245 15.7 5.55478 15.725 5.46278 15.775C5.37145 15.825 5.30911 15.9 5.27578 16L4.47578 17.75L2.72578 18.5499C2.62578 18.5833 2.55078 18.646 2.50078 18.738C2.45078 18.8293 2.42578 18.9166 2.42578 19C2.42578 19.0833 2.45078 19.1706 2.50078 19.2619C2.55078 19.3539 2.62578 19.4166 2.72578 19.45L4.47578 20.25L5.27578 22C5.30911 22.1 5.37145 22.175 5.46278 22.225C5.55478 22.275 5.64245 22.2999 5.72578 22.2999ZM15.7258 18.575C15.9091 18.575 16.0841 18.525 16.2508 18.4249C16.4174 18.3249 16.5424 18.1833 16.6258 18L18.2258 14.5L21.7258 12.9C21.9091 12.8166 22.0508 12.6916 22.1508 12.525C22.2508 12.3583 22.3008 12.1833 22.3008 12C22.3008 11.8166 22.2508 11.6416 22.1508 11.475C22.0508 11.3083 21.9091 11.1833 21.7258 11.1L18.2258 9.49995L16.6258 5.99995C16.5424 5.81662 16.4174 5.67495 16.2508 5.57495C16.0841 5.47495 15.9091 5.42495 15.7258 5.42495C15.5424 5.42495 15.3674 5.47495 15.2008 5.57495C15.0341 5.67495 14.9091 5.81662 14.8258 5.99995L13.2258 9.49995L9.72578 11.1C9.54245 11.1833 9.40078 11.3083 9.30078 11.475C9.20078 11.6416 9.15078 11.8166 9.15078 12C9.15078 12.1833 9.20078 12.3583 9.30078 12.525C9.40078 12.6916 9.54245 12.8166 9.72578 12.9L13.2258 14.5L14.8258 18C14.9091 18.1833 15.0341 18.3249 15.2008 18.4249C15.3674 18.525 15.5424 18.575 15.7258 18.575Z" fill="#5660F2"/>
</svg>
