<svg width="48" height="48" viewBox="0 0 48 48" fill="none" xmlns="http://www.w3.org/2000/svg">
<g clip-path="url(#clip0_26369_209678)">
<path d="M27 32L27 29L21 29L21 32L27 32Z" fill="#121619"/>
<path d="M42 15H33V9C33 8.20435 32.6839 7.44129 32.1213 6.87868C31.5587 6.31607 30.7956 6 30 6H18C17.2044 6 16.4413 6.31607 15.8787 6.87868C15.3161 7.44129 15 8.20435 15 9V15H6C5.20435 15 4.44129 15.3161 3.87868 15.8787C3.31607 16.4413 3 17.2044 3 18V39C3 39.7957 3.31607 40.5587 3.87868 41.1213C4.44129 41.6839 5.20435 42 6 42H42C42.7957 42 43.5587 41.6839 44.1213 41.1213C44.6839 40.5587 45 39.7957 45 39V18C45 17.2044 44.6839 16.4413 44.1213 15.8787C43.5587 15.3161 42.7957 15 42 15ZM18 9H30V15H18V9ZM6 39V18H42V39H6Z" fill="#121619"/>
<path d="M42 29L42 26L6 26L6 29L42 29Z" fill="#121619"/>
</g>
<defs>
<clipPath id="clip0_26369_209678">
<rect width="48" height="48" fill="white"/>
</clipPath>
</defs>
</svg>
