<svg width="49" height="48" viewBox="0 0 49 48" fill="none" xmlns="http://www.w3.org/2000/svg">
<g clip-path="url(#clip0_26369_209700)">
<path d="M39.5 21H36.5V24H39.5C40.6931 24.0013 41.8369 24.4758 42.6805 25.3195C43.5242 26.1631 43.9987 27.3069 44 28.5V34.5H47V28.5C46.9977 26.5116 46.2068 24.6053 44.8008 23.1992C43.3947 21.7932 41.4884 21.0023 39.5 21Z" fill="#121619"/>
<path d="M36.5 6C37.39 6 38.26 6.26392 39.0001 6.75839C39.7401 7.25285 40.3169 7.95566 40.6575 8.77792C40.9981 9.60019 41.0872 10.505 40.9135 11.3779C40.7399 12.2508 40.3113 13.0526 39.682 13.682C39.0526 14.3113 38.2508 14.7399 37.3779 14.9135C36.505 15.0872 35.6002 14.9981 34.7779 14.6575C33.9557 14.3169 33.2529 13.7401 32.7584 13.0001C32.2639 12.26 32 11.39 32 10.5C32 9.30653 32.4741 8.16193 33.318 7.31802C34.1619 6.47411 35.3065 6 36.5 6ZM36.5 3C35.0166 3 33.5666 3.43987 32.3332 4.26398C31.0999 5.08809 30.1386 6.25943 29.5709 7.62987C29.0032 9.00032 28.8547 10.5083 29.1441 11.9632C29.4335 13.418 30.1478 14.7544 31.1967 15.8033C32.2456 16.8522 33.582 17.5665 35.0368 17.8559C36.4917 18.1453 37.9997 17.9968 39.3701 17.4291C40.7406 16.8614 41.9119 15.9001 42.736 14.6668C43.5601 13.4334 44 11.9834 44 10.5C44 8.51088 43.2098 6.60322 41.8033 5.1967C40.3968 3.79018 38.4891 3 36.5 3Z" fill="#121619"/>
<path d="M35 45H32V42C31.9987 40.8069 31.5242 39.6631 30.6805 38.8195C29.8369 37.9758 28.6931 37.5013 27.5 37.5H21.5C20.3069 37.5013 19.1631 37.9758 18.3195 38.8195C17.4758 39.6631 17.0013 40.8069 17 42V45H14V42C14.0023 40.0116 14.7933 38.1053 16.1993 36.6993C17.6053 35.2933 19.5116 34.5023 21.5 34.5H27.5C29.4884 34.5023 31.3947 35.2933 32.8007 36.6993C34.2067 38.1053 34.9977 40.0116 35 42V45Z" fill="#121619"/>
<path d="M24.5 19.5C25.39 19.5 26.26 19.7639 27.0001 20.2584C27.7401 20.7529 28.3169 21.4557 28.6575 22.2779C28.9981 23.1002 29.0872 24.005 28.9135 24.8779C28.7399 25.7508 28.3113 26.5526 27.682 27.182C27.0526 27.8113 26.2508 28.2399 25.3779 28.4135C24.505 28.5872 23.6002 28.4981 22.7779 28.1575C21.9557 27.8169 21.2529 27.2401 20.7584 26.5001C20.2639 25.76 20 24.89 20 24C20 22.8065 20.4741 21.6619 21.318 20.818C22.1619 19.9741 23.3065 19.5 24.5 19.5ZM24.5 16.5C23.0166 16.5 21.5666 16.9399 20.3332 17.764C19.0999 18.5881 18.1386 19.7594 17.5709 21.1299C17.0032 22.5003 16.8547 24.0083 17.1441 25.4632C17.4335 26.918 18.1478 28.2544 19.1967 29.3033C20.2456 30.3522 21.582 31.0665 23.0368 31.3559C24.4917 31.6453 25.9997 31.4968 27.3701 30.9291C28.7406 30.3614 29.9119 29.4001 30.736 28.1668C31.5601 26.9334 32 25.4834 32 24C32 22.0109 31.2098 20.1032 29.8033 18.6967C28.3968 17.2902 26.4891 16.5 24.5 16.5Z" fill="#121619"/>
<path d="M12.5 21H9.5C7.5116 21.0023 5.6053 21.7933 4.19929 23.1993C2.79327 24.6053 2.00234 26.5116 2 28.5V34.5H5V28.5C5.00131 27.3069 5.47584 26.1631 6.31947 25.3195C7.1631 24.4758 8.30693 24.0013 9.5 24H12.5V21Z" fill="#121619"/>
<path d="M12.5 6C13.39 6 14.26 6.26392 15.0001 6.75839C15.7401 7.25285 16.3169 7.95566 16.6575 8.77792C16.9981 9.60019 17.0872 10.505 16.9135 11.3779C16.7399 12.2508 16.3113 13.0526 15.682 13.682C15.0526 14.3113 14.2508 14.7399 13.3779 14.9135C12.505 15.0872 11.6002 14.9981 10.7779 14.6575C9.95566 14.3169 9.25286 13.7401 8.75839 13.0001C8.26392 12.26 8 11.39 8 10.5C8 9.30653 8.47411 8.16193 9.31802 7.31802C10.1619 6.47411 11.3065 6 12.5 6ZM12.5 3C11.0166 3 9.5666 3.43987 8.33323 4.26398C7.09986 5.08809 6.13856 6.25943 5.57091 7.62987C5.00325 9.00032 4.85472 10.5083 5.14411 11.9632C5.4335 13.418 6.14781 14.7544 7.1967 15.8033C8.2456 16.8522 9.58197 17.5665 11.0368 17.8559C12.4917 18.1453 13.9997 17.9968 15.3701 17.4291C16.7406 16.8614 17.9119 15.9001 18.736 14.6668C19.5601 13.4334 20 11.9834 20 10.5C20 8.51088 19.2098 6.60322 17.8033 5.1967C16.3968 3.79018 14.4891 3 12.5 3Z" fill="#121619"/>
</g>
<defs>
<clipPath id="clip0_26369_209700">
<rect width="48" height="48" fill="white" transform="translate(0.5)"/>
</clipPath>
</defs>
</svg>
