<svg width="49" height="48" viewBox="0 0 49 48" fill="none" xmlns="http://www.w3.org/2000/svg">
<g clip-path="url(#clip0_26369_209687)">
<path d="M15.5 12H12.5V18H15.5V12Z" fill="#121619"/>
<path d="M15.5 21H12.5V27H15.5V21Z" fill="#121619"/>
<path d="M24.5 12H21.5V18H24.5V12Z" fill="#121619"/>
<path d="M24.5 21H21.5V27H24.5V21Z" fill="#121619"/>
<path d="M15.5 30H12.5V36H15.5V30Z" fill="#121619"/>
<path d="M24.5 30H21.5V36H24.5V30Z" fill="#121619"/>
<path d="M45.5 21C45.5 20.2044 45.1839 19.4413 44.6213 18.8787C44.0587 18.3161 43.2957 18 42.5 18H33.5V6C33.5 5.20435 33.1839 4.44129 32.6213 3.87868C32.0587 3.31607 31.2956 3 30.5 3H6.5C5.70435 3 4.94129 3.31607 4.37868 3.87868C3.81607 4.44129 3.5 5.20435 3.5 6V45H45.5V21ZM6.5 6H30.5V42H6.5V6ZM33.5 42V21H42.5V42H33.5Z" fill="#121619"/>
</g>
<defs>
<clipPath id="clip0_26369_209687">
<rect width="48" height="48" fill="white" transform="translate(0.5)"/>
</clipPath>
</defs>
</svg>
