<svg width="123" height="123" viewBox="0 0 123 123" fill="none" xmlns="http://www.w3.org/2000/svg">
<g clip-path="url(#clip0_34111_153186)">
<path fill-rule="evenodd" clip-rule="evenodd" d="M98.7662 23.6194L84.5167 76.7993C82.653 75.4776 80.5682 74.4993 78.3605 73.9105C75.075 73.0301 71.7599 73.0553 68.6797 73.8347C71.4957 73.3037 74.3953 73.4155 77.162 74.1618C87.361 76.8946 93.413 87.377 90.6802 97.576C87.9474 107.775 77.465 113.827 67.266 111.094C59.4292 108.994 54.0412 102.318 53.205 94.7114L16.5306 84.5283L37.2666 7.14062L98.7662 23.6194Z" fill="#FFFFFE"/>
<path fill-rule="evenodd" clip-rule="evenodd" d="M100.567 22.5795L98.1567 31.5739L103.209 32.9292L89.9953 82.2486C91.3701 84.5967 92.2642 87.1946 92.6258 89.8913C92.9873 92.588 92.8091 95.3297 92.1015 97.9569C89.1586 108.94 77.8693 115.458 66.8862 112.515C63.9118 111.721 61.1539 110.269 58.8161 108.266C56.4784 106.263 54.6205 103.76 53.3799 100.943L23.3609 92.8991L24.5935 88.2935L14.7338 85.5557L36.2268 5.34268L100.566 22.5823L100.567 22.5795ZM76.7822 75.5826C67.3687 73.0602 57.6918 78.646 55.169 88.0609C52.6467 97.4744 58.2339 107.152 67.6474 109.674C77.0609 112.196 86.7382 106.609 89.2605 97.1957C91.7833 87.7808 86.1957 78.1049 76.7822 75.5826ZM96.9645 24.6592L38.3073 8.94203L18.3291 83.5016L51.6226 92.7453C51.6138 90.9067 51.8511 89.0753 52.3281 87.2997C53.1042 84.3907 54.5101 81.6879 56.4465 79.3824C58.3828 77.077 60.8022 75.2253 63.5334 73.9585L32.4079 65.6184L33.1691 62.7775L68.7844 72.3221C71.7002 71.8289 74.6881 71.9721 77.5434 72.7416C79.6713 73.3118 81.6316 74.1948 83.3894 75.3281L96.9645 24.6592ZM49.8404 77.0949L49.0792 79.9358L30.2862 74.9003L31.0475 72.0593L49.8404 77.0949ZM76.8297 65.1436L76.0685 67.9845L34.7411 56.9109L35.5023 54.0699L76.8297 65.1436ZM79.1633 56.4346L78.4021 59.2756L37.0746 48.2019L37.8359 45.361L79.1633 56.4346ZM81.4969 47.7257L80.7356 50.5666L39.4082 39.493L40.1694 36.652L81.4969 47.7257ZM65.3638 34.0701L64.6026 36.9111L41.6434 30.7592L42.4046 27.9182L65.3638 34.0701ZM67.6977 25.3597L66.9365 28.2007L43.9773 22.0488L44.7385 19.2078L67.6977 25.3597Z" fill="black"/>
<path fill-rule="evenodd" clip-rule="evenodd" d="M85.3694 36.146C85.6077 35.2573 85.6686 34.3303 85.5487 33.418C85.4287 32.5058 85.1303 31.6261 84.6704 30.8291C84.2105 30.0322 83.5981 29.3336 82.8682 28.7734C82.1384 28.2131 81.3053 27.8021 80.4166 27.5638C79.5278 27.3255 78.6009 27.2645 77.6886 27.3845C76.7764 27.5044 75.8966 27.8028 75.0997 28.2627C74.3028 28.7227 73.6042 29.335 73.044 30.0649C72.4837 30.7948 72.0727 31.6279 71.8344 32.5166C71.3534 34.3115 71.6052 36.224 72.5343 37.8333C73.4635 39.4426 74.9938 40.6169 76.7888 41.0979C78.5837 41.5788 80.4962 41.327 82.1055 40.3979C83.7148 39.4688 84.8884 37.9409 85.3694 36.146Z" fill="#5660F2"/>
<g clip-path="url(#clip1_34111_153186)">
<path d="M75.7037 79.6062C68.5161 77.6803 61.1196 81.9506 59.1936 89.1382C57.2677 96.3259 61.5381 103.722 68.7257 105.648C75.9133 107.574 83.3098 103.304 85.2357 96.1162C87.1617 88.9286 82.8913 81.5321 75.7037 79.6062ZM67.866 98.44L63.1 90.1849L65.4279 88.8409L68.8534 94.755L81.3845 87.5202L82.725 89.8611L67.866 98.44Z" fill="#5660F2"/>
</g>
</g>
<defs>
<clipPath id="clip0_34111_153186">
<rect width="100" height="100" fill="white" transform="translate(26.1445 0.355469) rotate(15)"/>
</clipPath>
<clipPath id="clip1_34111_153186">
<rect width="32.3529" height="32.3529" fill="white" transform="translate(60.7764 72.8164) rotate(15)"/>
</clipPath>
</defs>
</svg>
