<svg width="260" height="180" viewBox="0 0 260 180" fill="none" xmlns="http://www.w3.org/2000/svg">
<g clip-path="url(#clip0_26369_209503)">
<path d="M259.771 116.425C256.45 96.1042 246.911 78.6377 234.255 62.7478C232.386 60.4048 232.029 58.8064 233.379 56.1714C237.766 47.6389 241.97 38.9969 247.298 31.0045C249.013 28.4353 248.458 27.5156 245.874 26.4573C243.079 25.3113 240.517 23.5961 237.758 22.3406C235.715 21.4137 235.306 20.202 235.78 18.0488C236.189 16.1803 237.459 14.1366 235.817 12.2096C235.824 12.2096 235.839 12.2096 235.846 12.2096C235.189 11.4943 235.335 10.6696 235.525 9.81558C236.576 5.02744 236.539 4.99095 231.657 4.6479C225.716 4.23185 219.782 3.73552 213.833 3.39247L179.814 2.53119C179.165 2.56039 165.144 5.01285 164.473 5.16613C152.663 7.81566 141.358 11.6841 131.351 18.713C130.286 19.4648 129.329 19.3262 128.264 18.9977C123.98 17.6693 119.732 16.2095 115.396 15.0635C113.798 14.6402 90.3109 7.58939 88.2016 7.26823C81.8517 6.30477 75.5603 5.04204 69.3126 3.56035C63.4956 2.17354 57.5034 2.96913 51.6864 1.56773C51.5112 1.52393 51.3579 1.47284 51.2047 1.41445C50.6573 1.58962 50.015 1.63342 49.234 1.54583C44.0447 0.954611 38.8335 0.494775 33.6149 0.363393C31.075 0.297702 27.0023 -1.57814 27.2943 3.8815C27.3089 4.08588 26.7907 4.52381 26.5352 4.50922C24.6084 4.41433 24.7908 5.67705 24.8638 6.93248C25.1631 12.268 25.309 17.6255 25.8054 22.9465C25.9878 24.9172 25.6959 26.0996 23.8566 27.0339C21.594 28.1871 19.4482 29.5958 17.3316 31.0191C16.6893 31.4498 15.4705 31.6687 16.1711 33.1723C20.0905 41.5516 21.8714 50.6899 25.3163 59.2443C26.0681 61.1128 25.8929 62.3756 24.5792 64.12C13.04 79.3968 4.25972 95.9801 0.369535 114.987C-1.35295 123.41 2.98245 128.497 12.6167 125.41C13.4268 125.147 14.2078 124.804 15.0106 124.526C19.6891 122.906 24.1705 120.797 29.0168 118.366C29.3306 134.76 30.3816 153.117 30.6882 169.072C31.0531 169.058 31.4253 169.043 31.7902 169.028C31.7959 168.79 31.8013 168.552 31.8064 168.313C32.3013 145.248 30.203 119.867 30.5787 96.3596C32.5785 97.6151 34.082 98.5858 35.6074 99.5055C36.8409 100.25 38.432 100.754 39.0889 99.2135C39.8115 97.5275 40.9647 97.5421 42.3368 97.1698C44.1177 96.6808 44.9424 95.3743 43.7017 93.5568C43.1689 92.7758 42.5558 92.0605 41.9427 91.2723C45.592 89.7833 45.9277 88.4913 43.4608 85.7615C41.95 84.0901 40.3881 82.4697 38.0233 81.2142C39.3152 80.7179 40.2786 80.55 40.9866 80.0318C42.8404 78.6669 42.8331 76.667 40.7384 76.1707C35.5078 74.937 36.3408 75.1219 33.7609 74.3824C32.6004 74.0539 30.7611 75.6451 30.3597 73.0467C28.2942 59.7552 22.8056 47.5002 18.514 34.8949C17.733 32.5884 18.1929 31.8658 19.9956 30.7272C27.5351 25.9901 35.8483 22.8224 43.7381 18.8006C51.2485 14.9833 59.0726 13.6256 67.3858 14.2461C87.749 15.7788 107.93 18.8079 128.132 21.6472C130.008 21.91 130.453 22.5523 130.453 24.3406C130.497 42.5807 130.906 60.8282 130.658 79.0683C130.227 110.921 128.57 142.759 129.585 174.634C129.6 175.123 129.57 175.605 129.607 176.094C129.702 177.605 129.337 178.203 127.534 177.948C121.162 177.035 114.71 176.546 108.485 174.904C83.2915 168.273 57.6327 167.294 31.8064 168.313C31.5651 168.323 31.3237 168.332 31.0823 168.342C30.9874 168.342 30.9071 168.649 30.6882 169.072C34.1696 170.072 37.6657 169.663 41.0814 169.554C64.1744 168.795 86.8805 171.116 109.382 176.561C118.199 178.692 127.271 180.553 136.701 178.437C152.758 174.824 169.326 175.313 185.588 173.24C200.046 171.393 214.534 169.744 229.022 168.123C232.547 167.729 234.788 166.97 234.167 162.51C233.693 159.073 234.299 155.481 234.518 151.963C235.116 142.343 235.029 132.767 232.905 123.293C232.635 122.081 232.299 120.804 232.773 119.417C235.656 120.658 238.313 121.826 240.992 122.943C243.794 124.11 246.575 125.322 249.582 125.921C257.122 127.424 261.012 124.03 259.771 116.432V116.425ZM38.578 83.4769C39.286 83.9222 40.0158 84.4769 40.4902 85.1484C41.4099 86.4549 44.3658 87.2359 43.2199 88.8052C41.8113 90.7248 39.3225 89.192 37.746 88.0169C34.2572 85.4112 30.5714 84.0098 26.1922 84.8783C25.3455 85.0462 24.5208 85.1922 23.9077 85.8491C23.842 86.3673 24.2653 86.4403 24.5354 86.36C32.0019 84.0681 36.6293 88.8928 41.4829 93.1262C42.0887 93.6517 43.0594 94.3159 42.5558 95.2137C41.9792 96.2355 40.8479 95.8122 39.9355 95.5276C37.7605 94.856 36.257 93.1554 34.7024 91.6883C31.3742 88.5497 27.8709 88.7833 23.9004 90.4037C25.0755 91.265 26.1995 90.8927 27.1848 90.7321C32.0822 89.9511 34.6367 93.4692 37.5416 96.3012C37.9868 96.7319 38.578 97.6005 38.0817 98.2574C37.3737 99.2062 36.5709 98.4399 35.8556 98.0384C33.4616 96.7173 31.4545 94.4327 28.3161 94.9655C27.5424 95.0969 26.5498 94.856 26.0754 96.2939C28.9949 95.7611 29.3671 97.2793 29.1554 99.6734C28.9073 102.52 29.097 105.403 28.754 108.337C24.0975 102.564 19.8205 96.6881 19.2074 89.0607C18.9227 85.506 24.3091 81.0537 29.535 80.3019C33.0967 79.7909 35.8118 81.7325 38.578 83.4696V83.4769ZM33.5638 75.7838C34.8411 75.6962 36.2424 76.0028 37.4321 76.5064C38.505 76.9589 40.6946 76.4261 40.4027 78.2655C40.1764 79.6742 38.1766 79.4771 36.9577 79.4844C33.1843 79.499 29.3744 77.9151 25.4915 79.7691C27.1556 76.229 30.4108 76.0028 33.5638 75.7838ZM28.9511 2.60418C29.2722 -0.242423 32.3668 1.58232 34.0893 1.64072C58.3574 2.4655 81.9101 7.64778 105.317 13.6183C107.047 14.0563 108.93 14.0855 111.389 15.8007C103.456 14.3774 96.5658 13.0928 89.6613 11.9177C71.2468 8.79372 52.8542 5.56027 34.1112 4.96175C32.3887 4.90336 28.5277 6.32666 28.9511 2.60418ZM67.8894 12.9395C59.5835 12.3337 51.6937 13.3337 44.1761 17.1C39.41 19.494 34.4616 21.5304 29.6736 23.8807C27.8271 24.7858 26.871 25.0194 26.7907 22.4501C26.6374 17.4722 26.3527 12.4943 26.0243 7.5237C25.9075 5.75004 26.3746 5.30481 28.2358 5.42889C54.7007 7.11495 80.808 11.3849 106.828 16.2898C109.433 16.7788 112.017 17.3627 114.615 17.9102C98.989 16.1657 83.4939 14.0782 67.8821 12.9468L67.8894 12.9395ZM234.861 6.32666C234.532 11.0929 234.416 11.3265 230.044 10.0929C214.768 5.77924 199.309 3.26839 183.361 4.50192C179.763 4.77928 176.194 5.83033 172.501 4.99095C193.331 2.37791 214.089 4.91796 234.861 6.32666ZM167.888 7.58939C186.887 4.78658 205.819 4.12967 224.453 10.1805C228.095 11.363 231.919 11.8301 235.744 12.2023C235.532 12.9979 235.306 13.7862 235.116 14.5818C233.861 19.9977 233.744 20.2166 229.073 17.4941C205.272 3.60414 180.391 4.93986 155.094 12.0783C150.087 13.4943 145.189 15.2679 140.241 16.8664C140.161 16.8883 140.037 16.7642 139.694 16.5744C148.707 11.9834 158.086 9.03459 167.896 7.58939H167.888ZM232.715 133.3C234.131 143.628 232.095 153.949 232.62 164.269C232.751 166.795 230.628 166.364 229.263 166.525C218.534 167.831 207.746 168.758 197.054 170.335C178.522 173.072 159.736 173.211 141.234 176.086C138.84 176.459 136.453 176.94 134.088 177.473C132.176 177.904 131.169 178.006 131.103 175.276C130.702 157.146 131.045 139.03 131.453 120.913C132.183 88.5643 133.125 56.2298 131.848 23.8734C131.789 22.4282 131.483 21.0998 133.504 20.4429C150.007 15.0781 166.334 9.34114 183.945 8.28279C202.192 7.18794 218.41 12.633 233.832 21.6472C237.496 23.7858 241.298 25.6909 245.101 27.5813C246.502 28.282 247.305 28.7053 246.115 30.4133C238.021 42.0333 232.605 55.1131 226.175 67.6381C223.718 72.4194 225.073 71.53 225.139 76.8422C222.022 79.1194 220.227 82.112 218.848 85.3163C217.704 87.9731 217.862 87.9731 219.928 91.9949C219.585 94.1569 219.525 92.2579 219.198 96.272C219.132 97.053 220.001 97.637 220.767 97.3742C223.592 96.418 226.971 98.3669 229.664 94.8852C229.89 99.761 230.365 103.863 230.204 107.943C229.854 116.534 231.554 124.877 232.7 133.292L232.715 133.3ZM241.291 90.3964C240.722 93.2065 234.868 102.819 231.941 105.447C230.919 101.681 231.292 98.1406 231.073 94.659C230.985 93.1992 231.803 92.4328 233.226 92.2576C234.24 92.1335 235.364 92.3817 236.561 91.316C233.175 90.0095 231.146 91.2868 229.131 93.4619C228.117 94.5641 226.723 96.8122 225.146 95.5421C224.051 94.659 225.847 92.8196 226.591 91.5058C228.657 87.849 231.518 85.5279 236.116 86.0462C233.401 84.5134 230.934 84.8199 228.73 86.7688C226.81 88.4694 225.336 90.5715 224.154 92.8415C223.409 94.2721 222.65 95.5859 220.49 95.9436C221.198 92.1408 223.125 89.2285 225.073 86.2286C227.285 82.8346 230.606 82.3748 234.182 82.0755C230.971 80.0099 228.255 81.1048 225.956 83.3237C224.402 84.8199 223.198 86.6958 221.906 88.4548C221.424 89.1191 220.862 89.557 220.103 89.3526C219.103 89.0825 219.395 88.141 219.585 87.5498C221.227 82.4989 223.978 78.353 229.233 76.4553C230.817 75.886 232.554 75.9955 233.511 77.5137C235.788 81.1486 238.174 84.6959 240.962 87.9731C241.561 88.6738 241.459 89.557 241.284 90.4037L241.291 90.3964Z" fill="black"/>
<path d="M232.715 133.3C234.131 143.628 232.095 153.949 232.62 164.269C232.751 166.795 230.628 166.364 229.263 166.525C218.534 167.831 207.746 168.758 197.054 170.335C178.522 173.072 159.736 173.211 141.234 176.086C138.84 176.459 136.453 176.94 134.088 177.473C132.176 177.904 131.169 178.006 131.103 175.276C130.702 157.146 131.045 139.03 131.453 120.913C132.183 88.5643 133.125 56.2298 131.848 23.8734C131.789 22.4282 131.483 21.0998 133.504 20.4429C150.007 15.0781 166.334 9.34114 183.945 8.28279C202.192 7.18794 218.41 12.633 233.832 21.6472C237.496 23.7858 241.298 25.6909 245.101 27.5813C246.502 28.282 247.305 28.7053 246.115 30.4133C238.021 42.0333 232.605 55.1131 226.175 67.6381C223.718 72.4194 225.073 71.53 225.139 76.8422C222.022 79.1194 220.227 82.112 218.848 85.3163C217.704 87.9731 217.862 87.9731 219.928 91.9949C219.585 94.1569 219.525 92.2579 219.198 96.272C219.132 97.053 220.001 97.637 220.767 97.3742C223.592 96.418 226.971 98.3669 229.664 94.8852C229.89 99.761 230.365 103.863 230.204 107.943C229.854 116.534 231.554 124.877 232.7 133.292L232.715 133.3Z" fill="#F6F2FF"/>
<path d="M30.5787 96.3596C30.203 119.867 32.3013 145.248 31.8064 168.313C57.6327 167.294 83.2915 168.273 108.485 174.904C114.71 176.546 121.162 177.035 127.534 177.948C129.337 178.203 129.702 177.605 129.607 176.094C129.57 175.605 129.6 175.123 129.585 174.634C128.57 142.759 130.227 110.921 130.658 79.0683C130.906 60.8282 130.497 42.5807 130.453 24.3406C130.453 22.5523 130.008 21.91 128.132 21.6472C107.93 18.8079 87.749 15.7788 67.3858 14.2461C59.0726 13.6256 51.2485 14.9833 43.7381 18.8006C35.8483 22.8224 27.5351 25.9901 19.9956 30.7272C18.1929 31.8658 17.733 32.5884 18.514 34.8949C22.8056 47.5002 28.2942 59.7552 30.3597 73.0467C30.7611 75.6451 32.6004 74.0539 33.7609 74.3824C36.3408 75.1219 35.5078 74.937 40.7384 76.1707C42.8331 76.667 42.8404 78.6669 40.9866 80.0318C40.2786 80.55 39.3152 80.7179 38.0233 81.2142C40.3881 82.4697 41.95 84.0901 43.4608 85.7615C45.9277 88.4913 45.592 89.7833 41.9427 91.2723C42.5558 92.0605 43.1689 92.7758 43.7017 93.5568C44.9424 95.3743 44.1177 96.6808 42.3368 97.1698C40.9647 97.5421 39.8115 97.5275 39.0889 99.2135C38.432 100.754 36.8409 100.25 35.6074 99.5055C34.082 98.5858 32.5785 97.6151 30.5787 96.3596Z" fill="#F6F2FF"/>
<path d="M24.9551 36.4367C26.1229 34.9185 27.8089 34.2324 29.2905 33.3565C36.9249 28.8166 45.0775 25.3423 53.2009 21.795C56.7772 20.233 60.5798 20.1454 64.3021 20.4154C81.1474 21.6344 97.9051 23.6927 114.641 25.9116C116.349 26.1379 118.283 26.1671 119.859 27.8458C116.582 28.2108 113.663 27.3276 110.729 27.021C95.3944 25.4153 80.0672 23.6927 64.74 21.9628C59.6456 21.3862 54.9161 22.3205 50.2741 24.5394C42.72 28.1451 35.0199 31.4515 27.7651 35.6703C26.9768 36.1302 26.2469 36.9622 24.9624 36.4367H24.9551Z" fill="black"/>
<path d="M120.837 76.7261C104.167 74.8649 87.3943 73.8795 70.8848 70.8066C87.6717 71.6825 104.422 72.8723 120.837 76.7261Z" fill="black"/>
<path d="M64.0645 29.5586C82.3987 31.4636 99.93 34.4927 118.323 35.5365C114.082 37.259 70.0421 32.3103 64.0645 29.5586Z" fill="black"/>
<path d="M71.0186 75.4883C81.8425 76.7875 92.754 77.1962 103.556 78.7509C99.6147 80.6341 74.7044 78.1889 71.0186 75.4883Z" fill="black"/>
<path d="M62.2893 96.0134C62.2893 87.9845 62.1871 80.3643 62.3477 72.7442C62.406 70.0947 61.8878 69.0436 58.9684 69.5545C53.4871 70.5253 47.9474 71.1895 42.4223 71.9194C41.6998 72.0143 40.802 72.6055 40.043 71.4304C46.8672 69.9998 53.6331 68.9706 60.4573 68.2699C61.7784 68.1312 63.1505 67.9196 63.1651 70.0655C63.2308 78.6345 63.5884 87.2181 62.2966 96.006L62.2893 96.0134Z" fill="black"/>
<path d="M72.5312 61.8379C87.4935 63.5678 102.448 65.2903 117.411 67.0202L117.279 68.1953C102.354 66.4727 87.3913 65.1224 72.5386 62.7941C72.5386 62.4729 72.5386 62.159 72.5386 61.8379H72.5312Z" fill="black"/>
<path d="M30.6836 47.0973C38.8727 41.9661 47.7114 38.229 56.7836 34.9883C48.5799 40.083 39.7047 43.7544 30.6836 47.0973Z" fill="black"/>
<path d="M62.3289 30.3164C65.3359 40.6737 67.8539 51.1477 70.2333 61.6583C69.8538 61.7531 69.4815 61.848 69.102 61.9429C66.4964 51.4616 63.8908 40.9802 61.2852 30.4989C61.6355 30.4405 61.9785 30.3748 62.3289 30.3164Z" fill="black"/>
<path d="M28.459 41.678C36.67 37.627 44.5452 32.817 53.8875 31.2988C45.567 35.1016 37.2466 38.9117 28.9261 42.7144C28.7728 42.3714 28.6196 42.021 28.459 41.678Z" fill="black"/>
<path d="M120.179 149.261C112.668 148.312 105.107 147.808 97.6914 146.159C97.7352 145.794 97.779 145.422 97.8228 145.057C105.326 146.042 112.829 147.02 120.325 148.005C120.273 148.421 120.222 148.845 120.179 149.261Z" fill="black"/>
<path d="M59.3687 143.248C51.9386 143.277 44.5013 143.532 37.0713 143.007C37.0713 142.707 37.0713 142.401 37.0713 142.102H59.376C59.376 142.481 59.376 142.868 59.376 143.248H59.3687Z" fill="black"/>
<path d="M62.2142 58.9109C53.6383 61.7502 44.8434 63.6845 36.0558 65.6698C35.9755 65.3559 35.9026 65.0494 35.8223 64.7355C44.515 62.4947 53.2077 60.2466 61.9004 58.0059L62.2215 58.9109H62.2142Z" fill="black"/>
<path d="M66.5868 142.465C74.046 143.041 81.5053 143.618 88.9645 144.195C88.9353 144.574 88.9061 144.954 88.8769 145.333C81.425 144.954 73.9366 144.976 66.5576 143.56C66.5649 143.195 66.5795 142.83 66.5868 142.465Z" fill="black"/>
<path d="M67.6092 154.248C74.9151 154.795 82.2211 155.321 89.4103 156.795C89.3665 157.168 89.3227 157.54 89.2789 157.912L67.5508 155.489C67.5727 155.073 67.5873 154.664 67.6092 154.248Z" fill="black"/>
<path d="M59.5204 126.733H37.6025C37.6171 126.573 37.6244 126.405 37.639 126.244H59.5569C59.5423 126.405 59.535 126.573 59.5204 126.733Z" fill="black"/>
<path d="M89.1885 134.718C81.8898 134.148 74.5912 133.579 67.2998 133.002C67.3217 132.645 67.3436 132.28 67.3728 131.922C74.7152 131.769 81.9774 132.922 89.2761 133.448C89.2469 133.871 89.2177 134.294 89.1958 134.71L89.1885 134.718Z" fill="black"/>
<path d="M38.1162 131.184H59.6035C59.6035 131.439 59.6035 131.695 59.6035 131.95H38.16C38.1454 131.695 38.1308 131.439 38.1162 131.184Z" fill="black"/>
<path d="M89.2189 151.138C81.986 150.62 74.753 150.102 67.5273 149.576C67.5565 149.189 67.5857 148.795 67.6149 148.408C74.8625 148.547 82.0955 148.985 89.2846 150.05C89.2627 150.415 89.2408 150.773 89.2189 151.138Z" fill="black"/>
<path d="M59.735 155.626C52.5459 155.297 45.364 154.962 38.1748 154.633C38.1967 154.261 38.2113 153.896 38.2332 153.524C45.4151 153.392 52.5969 153.385 59.7277 154.546C59.7277 154.903 59.7277 155.268 59.735 155.626Z" fill="black"/>
<path d="M38.1631 147.614C45.3231 147.476 52.4903 147.162 59.6284 148.607H38.2069C38.1923 148.278 38.1777 147.943 38.1631 147.614Z" fill="black"/>
<path d="M38.2949 121.525H59.6507C59.6507 121.89 59.6507 122.255 59.6507 122.62C52.5272 122.722 45.4038 123.19 38.2803 122.503C38.2803 122.175 38.2876 121.854 38.2949 121.525Z" fill="black"/>
<path d="M59.3452 160.726H38.7119C38.7192 160.295 38.7265 159.864 38.7338 159.434C45.6164 159.455 52.4991 159.543 59.3452 160.726Z" fill="black"/>
<path d="M98.5127 139.381C106.001 139.739 113.285 141.425 120.628 142.76C120.577 143.14 120.518 143.512 120.467 143.892C113.103 142.738 105.738 141.585 98.374 140.432C98.4178 140.082 98.4689 139.731 98.5127 139.381Z" fill="black"/>
<path d="M88.9488 129.523C81.694 129.071 74.4318 128.669 67.2354 127.64C67.2718 127.246 67.3083 126.852 67.3448 126.465C74.5778 127.085 81.8181 127.706 89.051 128.326C89.0145 128.728 88.9853 129.129 88.9488 129.53V129.523Z" fill="black"/>
<path d="M37.3398 115.826H60.2357C56.309 117.454 41.4198 117.33 37.3398 115.826Z" fill="black"/>
<path d="M120.634 154.999C113.335 154.058 106.036 153.109 98.7305 152.167C98.7816 151.802 98.8253 151.437 98.8764 151.072C106.204 151.503 113.481 152.35 120.656 153.977C120.648 154.32 120.641 154.656 120.634 154.999Z" fill="black"/>
<path d="M98.876 157.389C106.299 157.87 113.641 158.651 120.67 161.191C113.305 160.454 105.956 159.637 98.876 157.389Z" fill="black"/>
<path d="M67.4364 136.684C74.7569 136.961 82.0118 137.844 89.2448 139.005C89.2156 139.348 89.1864 139.698 89.1572 140.041C81.9023 139.326 74.6474 138.611 67.3926 137.895C67.4072 137.494 67.4291 137.085 67.4437 136.684H67.4364Z" fill="black"/>
<path d="M99.4014 113.246C106.481 113.232 113.407 114.465 120.268 116.217C113.203 116.144 106.284 114.896 99.4014 113.246Z" fill="black"/>
<path d="M99.5011 162.949C106.552 164.015 113.602 165.073 120.653 166.139C120.587 166.533 120.529 166.92 120.463 167.314C113.376 166.365 106.23 165.781 99.2676 164.029C99.3479 163.672 99.4281 163.307 99.5084 162.949H99.5011Z" fill="black"/>
<path d="M60.1803 104.206H39.0215C39.0215 103.826 39.0361 103.454 39.0434 103.074C46.0574 103.22 53.0787 102.833 60.1803 104.206Z" fill="black"/>
<path d="M98.7422 134.932C106.085 135.078 113.325 136.034 120.448 137.822C113.091 137.8 105.873 136.713 98.7422 134.932Z" fill="black"/>
<path d="M120.356 132.698C112.934 132.625 105.65 131.552 98.4678 129.734C105.898 129.734 113.138 131.158 120.356 132.698Z" fill="black"/>
<path d="M67.4629 116.246L88.899 117.998C85.4833 119.487 70.5794 118.261 67.4629 116.246Z" fill="black"/>
<path d="M98.6285 118.852C105.818 119.83 112.999 120.8 120.189 121.778C120.138 122.151 120.079 122.523 120.028 122.895C112.817 122.085 105.548 121.705 98.4971 119.793C98.5409 119.479 98.5847 119.165 98.6285 118.852Z" fill="black"/>
<path d="M89.1176 163.616L68.4551 161.74C68.4843 161.404 68.5135 161.068 68.5427 160.725C75.4837 160.631 82.3444 161.565 89.2125 162.382C89.1833 162.791 89.1541 163.2 89.1249 163.616H89.1176Z" fill="black"/>
<path d="M68.3389 110.539C75.2434 110.24 82.0312 111.065 89.0817 111.926C86.8702 113.218 74.7544 112.532 68.3389 110.539Z" fill="black"/>
<path d="M120.577 128.613C113.402 127.751 106.126 127.678 99.0752 125.81C99.1117 125.511 99.1482 125.211 99.1774 124.912C106.323 125.766 113.468 126.613 120.606 127.467C120.599 127.846 120.584 128.233 120.577 128.613Z" fill="black"/>
<path d="M89.082 124.787C82.0242 124.013 74.8496 124.962 67.8721 123.16C67.8867 122.86 67.9086 122.561 67.9232 122.262C74.9737 122.714 82.0242 123.167 89.0674 123.619C89.0674 124.006 89.0674 124.4 89.0747 124.787H89.082Z" fill="black"/>
<path d="M59.2375 110.48H38.7939C38.7939 110.152 38.7939 109.816 38.7939 109.488C45.5963 108.349 52.4205 109.582 59.2448 110.48H59.2375Z" fill="black"/>
<path d="M59.6678 137.243C52.4275 137.506 45.1215 137.674 37.8594 136.44C45.1288 135.761 52.3764 135.813 59.6678 137.243Z" fill="black"/>
<path d="M120.919 110.839C113.817 109.839 106.715 108.832 99.6064 107.832C99.6575 107.452 99.7086 107.073 99.767 106.693C106.898 107.467 114.007 108.379 121.043 109.847C120.999 110.175 120.962 110.503 120.919 110.839Z" fill="black"/>
<path d="M89.6037 106.994C82.5605 106.396 75.51 105.797 68.4668 105.199C68.5033 104.768 68.5398 104.337 68.5763 103.914C75.6195 104.542 82.6627 105.169 89.7059 105.79C89.6694 106.191 89.6402 106.593 89.6037 106.994Z" fill="black"/>
<path d="M91.0249 90.7446C84.1934 90.8176 77.4129 90.3431 70.6689 89.3578C70.6908 89.0658 70.7127 88.7739 70.7346 88.4746C77.4859 88.8761 84.2298 89.2775 90.9811 89.6789C90.9957 90.0293 91.0103 90.3869 91.0176 90.7373L91.0249 90.7446Z" fill="black"/>
<path d="M58.0694 47.8691C50.8948 51.9712 43.151 54.4309 35.0859 55.9929C42.7495 53.285 50.4058 50.5771 58.0694 47.8691Z" fill="black"/>
<path d="M91.5966 96.2374C84.5753 95.274 77.5029 94.9163 69.4014 94.3616C74.9702 92.8653 87.2831 93.9455 91.5966 96.2374Z" fill="black"/>
<path d="M55.9017 44.5996C48.4935 47.3732 41.0854 50.1468 33.6846 52.9205C40.5818 48.7965 48.0629 46.2054 55.9017 44.5996Z" fill="black"/>
<path d="M60.03 53.5191C52.2935 56.0153 44.5569 58.5116 36.8203 61.0078C44.1628 57.2781 51.9066 54.7818 59.7381 52.541C59.833 52.8622 59.9352 53.1906 60.03 53.5118V53.5191Z" fill="black"/>
<path d="M100.479 91.0801C107.486 91.7881 114.617 91.0436 121.477 93.5982C114.456 93.0946 107.428 92.591 100.406 92.0946C100.428 91.7589 100.457 91.4231 100.479 91.0874V91.0801Z" fill="black"/>
<path d="M71.667 84.1543C78.1847 84.5119 84.8265 84.2784 91.2712 85.928C84.6951 85.9425 78.1555 85.6725 71.667 84.1543Z" fill="black"/>
<path d="M100.723 95.0508C106.985 95.4668 113.24 95.9851 119.407 97.1602C119.363 97.4959 119.32 97.8317 119.276 98.1675C113.05 97.4376 106.824 96.7077 100.599 95.9778C100.635 95.6712 100.679 95.3573 100.715 95.0508H100.723Z" fill="black"/>
<path d="M121.251 89.0742C114.631 89.4611 108.128 88.4173 101.632 87.3371C108.244 87.0524 114.777 87.7385 121.251 89.0742Z" fill="black"/>
<path d="M119.599 66.3896V38.2812C119.774 38.2812 119.942 38.2812 120.117 38.2812V66.3896C119.942 66.3896 119.774 66.3896 119.599 66.3896Z" fill="black"/>
<path d="M58.5085 98.5907H41.707C47.2978 97.7951 52.8959 97.3791 58.5085 98.5907Z" fill="black"/>
<path d="M231.553 44.4567C229.429 44.3034 228.057 42.9093 226.487 41.8583C214.496 33.844 201.986 27.3187 186.885 28.8807C174.178 30.1945 161.77 32.9608 149.647 36.9972C146.231 38.1358 142.83 39.3036 139.13 40.5518C139.648 38.6613 141.152 38.6248 142.203 38.2234C157.012 32.6032 172.28 28.8442 188.067 27.4063C194.549 26.8151 200.906 27.7639 207.029 30.0193C216.08 33.355 224.393 37.9533 231.553 44.4494V44.4567Z" fill="black"/>
<path d="M142.53 97.5409C145.143 95.7235 147.741 95.8986 150.142 95.5775C164.462 93.6798 178.789 91.8696 193.117 90.0376C194.197 89.8989 195.299 89.8405 196.387 89.8113C196.97 89.7967 197.693 89.7675 197.773 90.585C197.854 91.3952 197.167 91.5484 196.576 91.6214C193.927 91.9426 191.263 92.1981 188.613 92.5338C174.527 94.3367 160.441 96.1687 146.354 97.9643C145.289 98.1029 144.179 98.3292 142.522 97.5409H142.53Z" fill="black"/>
<path d="M142.47 101.879C146.126 99.8501 149.462 100.076 152.593 99.6603C165.942 97.8721 179.306 96.2517 192.684 94.6605C194.049 94.5 196.414 93.3102 196.67 95.3028C196.881 96.9889 194.385 96.405 193.064 96.5729C178.386 98.4341 163.694 100.244 149.002 102.04C147.119 102.273 145.214 102.777 142.47 101.879Z" fill="black"/>
<path d="M195.882 82.3555C178.862 84.786 161.841 86.6327 144.887 89.0048C161.666 84.9685 178.731 83.0343 195.882 82.3555Z" fill="black"/>
<path d="M145.594 44.9806C161.899 39.3603 178.204 33.5285 195.94 35.4773C178.518 35.2583 162.205 40.8347 145.594 44.9806Z" fill="black"/>
<path d="M200.963 35.0234C199.357 49.7163 197.832 63.6063 196.204 78.5108C194.555 73.0584 198.27 39.7094 200.963 35.0234Z" fill="black"/>
<path d="M142.312 45.6504C144.158 60.5184 142.837 75.4011 142.83 90.2764C141.093 75.4157 142.355 60.5257 142.312 45.6504Z" fill="black"/>
<path d="M207.025 38.2812C210.77 39.9965 214.112 41.4928 217.419 43.0548C220.484 44.5 223.513 46.0036 226.557 47.4999C227.257 47.8429 227.79 48.3831 227.396 49.2297C227.14 49.7772 226.593 49.6312 226.155 49.4049C219.944 46.1496 213.258 43.8431 207.376 39.9454C207.179 39.814 207.23 39.3104 207.033 38.2886L207.025 38.2812Z" fill="black"/>
<path d="M205.726 43.3218C212.521 46.1976 219.316 49.0734 226.118 51.9492C225.914 52.4017 225.717 52.8615 225.512 53.3141C218.506 50.9127 211.55 48.3945 205.215 44.4604C205.383 44.0808 205.551 43.7013 205.726 43.3145V43.3218Z" fill="black"/>
<path d="M142.738 130.539C150.117 129.473 157.496 128.407 164.875 127.342C164.926 127.707 164.985 128.072 165.036 128.437C157.737 130.028 150.329 130.882 142.906 131.655C142.848 131.283 142.797 130.911 142.738 130.539Z" fill="black"/>
<path d="M165.687 144.41C158.264 146.198 150.673 146.716 143.119 147.49C143.068 147.132 143.017 146.767 142.966 146.41C150.476 145.373 157.979 144.329 165.489 143.293L165.687 144.417V144.41Z" fill="black"/>
<path d="M164.532 156.392C157.233 157.633 149.942 158.874 142.643 160.114C142.585 159.815 142.534 159.509 142.476 159.209C149.548 156.735 157.044 156.523 164.313 155.078L164.532 156.392Z" fill="black"/>
<path d="M164.814 138.133C157.574 139.943 150.282 141.366 142.809 141.622C150.012 139.644 157.311 138.235 164.814 138.133Z" fill="black"/>
<path d="M176.546 110.149C183.436 109.244 190.333 108.346 197.223 107.441C197.274 107.836 197.332 108.23 197.384 108.624C190.559 110.04 183.633 110.77 176.685 111.31C176.641 110.923 176.59 110.536 176.546 110.149Z" fill="black"/>
<path d="M142.621 152.342C149.788 150.627 157.094 149.97 164.415 149.379C164.466 149.744 164.51 150.116 164.561 150.481C157.291 151.423 150.022 152.371 142.752 153.313C142.709 152.992 142.665 152.663 142.621 152.342Z" fill="black"/>
<path d="M176.366 149.107C183.153 147.312 190.109 146.779 197.05 146.107L197.218 147.304L176.468 150.144C176.431 149.801 176.395 149.45 176.358 149.107H176.366Z" fill="black"/>
<path d="M205.15 145.94C211.945 144.334 218.806 143.239 225.806 143.166C225.849 143.494 225.9 143.816 225.944 144.144L205.311 146.976C205.26 146.633 205.209 146.283 205.15 145.94Z" fill="black"/>
<path d="M205.262 107.002C212.115 106.097 218.969 105.192 225.822 104.287C225.873 104.637 225.924 104.995 225.983 105.345C219.246 107.105 212.276 107.345 205.408 108.265C205.357 107.842 205.313 107.426 205.262 107.002Z" fill="black"/>
<path d="M196.39 152.508C190.026 154.785 183.304 154.719 176.662 155.223C183.027 152.997 189.763 153.084 196.39 152.508Z" fill="black"/>
<path d="M142.697 136.2C149.857 134.492 157.09 133.259 164.491 133.274C157.368 135.252 150.062 135.952 142.697 136.2Z" fill="black"/>
<path d="M163.776 161.828C157.098 164.288 150.033 164.485 143.048 165.229C149.733 162.857 156.791 162.602 163.776 161.828Z" fill="black"/>
<path d="M205.36 151.783C211.783 150.068 218.367 149.615 225.308 148.922C223.03 150.82 210.929 152.615 205.36 151.783Z" fill="black"/>
<path d="M176.563 133.091C183.067 131.128 189.774 130.588 196.547 130.588C190.044 132.5 183.3 132.792 176.563 133.091Z" fill="black"/>
<path d="M143.024 120.17C150.257 119.17 157.498 118.17 164.731 117.17L164.869 118.075C157.811 120.25 150.403 120.192 143.178 121.33C143.127 120.943 143.076 120.557 143.024 120.17Z" fill="black"/>
<path d="M176.563 144.036C182.848 142.489 189.197 141.518 195.671 141.751C189.424 143.532 183.008 143.985 176.563 144.036Z" fill="black"/>
<path d="M163.84 112.225C156.972 113.218 150.104 114.218 143.236 115.211C143.185 114.882 143.134 114.546 143.083 114.218C149.856 112.605 156.746 111.773 163.658 111.014C163.724 111.415 163.782 111.817 163.848 112.218L163.84 112.225Z" fill="black"/>
<path d="M196.617 125.631C189.895 127.485 182.954 127.777 176.079 128.492L175.933 127.39C182.786 126.492 189.639 125.587 196.493 124.689L196.617 125.631Z" fill="black"/>
<path d="M225.636 122.337C218.899 124.417 211.878 124.49 204.966 125.344C204.915 124.972 204.857 124.599 204.806 124.227C211.703 123.293 218.607 122.366 225.505 121.432L225.636 122.329V122.337Z" fill="black"/>
<path d="M205.425 129.862C211.943 128.052 218.57 127.183 225.343 127.533C218.818 129.278 212.132 129.672 205.425 129.862Z" fill="black"/>
<path d="M142.681 125.838C149.878 124.954 157.067 124.078 164.263 123.195C157.337 126.093 150.009 126.078 142.791 126.896C142.754 126.546 142.718 126.188 142.674 125.838H142.681Z" fill="black"/>
<path d="M196.164 114.961C189.654 116.677 183.026 117.012 176.37 117.151C182.888 115.604 189.471 114.742 196.164 114.961Z" fill="black"/>
<path d="M224.842 132.842C218.419 134.791 211.741 135.185 205.062 135.623C211.493 133.688 218.127 133.097 224.842 132.842Z" fill="black"/>
<path d="M204.456 158.574C210.675 155.735 217.272 155.406 223.856 155.02C223.907 155.363 223.958 155.713 224.009 156.056C217.491 156.895 210.974 157.735 204.463 158.574H204.456Z" fill="black"/>
<path d="M225.005 111.807C218.494 113.07 212.013 114.347 205.35 113.814C211.824 112.376 218.385 111.646 225.005 111.807Z" fill="black"/>
<path d="M163.583 106.191C156.518 107.191 149.453 108.191 142.388 109.191C142.337 108.884 142.293 108.578 142.242 108.271C149.191 106.578 156.321 105.95 163.386 104.965C163.452 105.374 163.518 105.782 163.583 106.198V106.191Z" fill="black"/>
<path d="M175.796 160.772C182.043 158.925 188.495 158.677 194.918 158.254C194.962 158.582 195.006 158.918 195.05 159.247C188.619 160.079 182.182 160.903 175.752 161.736C175.767 161.414 175.781 161.093 175.796 160.772Z" fill="black"/>
<path d="M205.646 101.511C212.12 99.5623 218.799 99.2047 225.47 98.8105C219.018 100.935 212.325 101.161 205.646 101.511Z" fill="black"/>
<path d="M196.592 102.057C190.125 104.02 183.447 104.48 176.732 104.662C183.228 102.911 189.87 102.276 196.592 102.057Z" fill="black"/>
<path d="M205.36 140.783C211.637 139.155 218.024 138.389 224.519 138.506C218.272 140.345 211.863 140.965 205.36 140.783Z" fill="black"/>
<path d="M205.565 119.815C211.682 118.486 217.805 117.486 224.06 117.749C217.995 119.413 211.813 120.026 205.565 119.815Z" fill="black"/>
<path d="M221.783 60.9962C215.382 59.4415 209.426 56.7482 203.492 53.9819C203.602 53.6899 203.711 53.4052 203.821 53.1133C209.915 55.449 216.017 57.7846 222.111 60.1203C222.002 60.4123 221.892 60.7042 221.783 60.9962Z" fill="black"/>
<path d="M176.358 138.738C182.737 136.949 189.248 136.146 195.86 136.146C189.481 137.898 182.942 138.504 176.358 138.738Z" fill="black"/>
<path d="M176.721 123.134C182.764 121.499 188.909 120.733 195.179 120.923C189.165 122.791 182.946 122.974 176.721 123.134Z" fill="black"/>
<path d="M202.905 58.6719C209.08 60.0879 215.247 61.4966 221.422 62.9126C221.349 63.2118 221.283 63.5111 221.21 63.8104C214.875 62.9491 208.722 61.2776 202.569 59.6134C202.686 59.2996 202.796 58.9857 202.912 58.6719H202.905Z" fill="black"/>
<path d="M221.362 55.467C215.873 54.27 210.779 52.073 205.903 49.3066C211.275 50.7956 216.494 52.6861 221.362 55.467Z" fill="black"/>
<path d="M220.76 66.8037C215.008 66.6358 209.22 67.0737 203.557 65.0957C209.308 65.3658 215.059 65.6358 220.803 65.9059C220.789 66.2051 220.774 66.5044 220.76 66.8037Z" fill="black"/>
</g>
<defs>
<clipPath id="clip0_26369_209503">
<rect width="260" height="179.38" fill="white"/>
</clipPath>
</defs>
</svg>
