<svg width="92" height="92" viewBox="0 0 92 92" fill="none" xmlns="http://www.w3.org/2000/svg">
<g clip-path="url(#clip0_26369_209648)">
<path d="M74.0003 24.4219H23.4414V90.1307H74.0003V24.4219Z" fill="#D4BBFF" stroke="black" stroke-linejoin="round"/>
<path d="M68.5618 64.5V74.6042C68.5618 80.1811 64.0345 84.7084 58.445 84.7084H48.3281V64.5H68.5491H68.5618Z" fill="white" stroke="black" stroke-linejoin="round"/>
<path d="M68.559 19V64.5005H48.3379V84.7089H18V19H68.559Z" fill="#F6F2FF" stroke="black" stroke-linejoin="round"/>
<path d="M43.293 50.6172H63.5266" stroke="black" stroke-linejoin="round"/>
<path d="M28.1094 55.6406L63.5282 55.6703" stroke="black" stroke-linejoin="round"/>
<ellipse cx="53.4059" cy="32.9137" rx="10.1168" ry="10.1168" fill="#5660F2"/>
<ellipse cx="53.414" cy="30.9022" rx="3.03505" ry="3.03505" stroke="white"/>
<path d="M59.2222 41.0038V40.9688C59.2222 39.3119 57.8791 37.9688 56.2222 37.9688H50.082C48.4252 37.9688 47.082 39.3119 47.082 40.9688V41.0038" stroke="white"/>
<path d="M24.5045 76.1185C28.7316 78.5349 32.3211 81.909 34.951 85.9568C37.7165 82.1039 42.2485 79.5641 47.4012 79.5641C50.163 79.5641 53.1966 80.5891 55.4411 81.8659C55.4671 81.8802 55.4929 81.8949 55.5184 81.9101C56.5004 76.3424 59.0458 71.3147 62.6634 67.2502C67.2574 62.0945 73.5954 58.5033 80.7855 57.3897C82.3432 57.1503 83.9291 57 85.5545 57C89.6123 57 93.467 57.8129 97 59.2327V94H-6V76.1018C-3.66349 74.7711 -1.19153 73.7634 1.35381 73.0952C3.28961 72.583 5.26493 72.2489 7.25153 72.1097C7.90621 72.0708 8.57217 72.0485 9.24377 72.0485C11.8794 72.0485 14.436 72.3881 16.8741 73.0117C19.5888 73.7021 22.1397 74.7656 24.5045 76.1185Z" fill="#F2F4F8"/>
<path d="M55.5184 81.9101C53.2666 80.6129 50.1949 79.5641 47.4012 79.5641C42.2485 79.5641 37.7165 82.1039 34.951 85.9568C32.3211 81.909 28.7316 78.5349 24.5045 76.1185C22.1397 74.7656 19.5888 73.7021 16.8741 73.0117C14.436 72.3881 11.8794 72.0485 9.24377 72.0485C8.57217 72.0485 7.90621 72.0708 7.25153 72.1097C5.26493 72.2489 3.28961 72.583 1.35381 73.0952C-1.19153 73.7634 -3.66349 74.7711 -6 76.1018V94H97V59.2327C93.467 57.8129 89.6123 57 85.5545 57C83.9291 57 82.3432 57.1503 80.7855 57.3897C73.5954 58.5033 67.2574 62.0945 62.6634 67.2502C59.0458 71.3147 56.5004 76.3424 55.5184 81.9101ZM55.5184 81.9101C55.3604 81.8155 55.1911 81.7431 55.0331 81.654" stroke="black" stroke-linejoin="round"/>
<path d="M79 7L87 15" stroke="black" stroke-linejoin="round"/>
<path d="M79 15L87 7" stroke="black" stroke-linejoin="round"/>
<path d="M3 37L11 45" stroke="black" stroke-linejoin="round"/>
<path d="M3 45L11 37" stroke="black" stroke-linejoin="round"/>
</g>
<defs>
<clipPath id="clip0_26369_209648">
<rect width="92" height="92" fill="white"/>
</clipPath>
</defs>
</svg>
