<svg width="24" height="24" viewBox="0 0 24 24" fill="none" xmlns="http://www.w3.org/2000/svg">
<path d="M11.67 2.17188C13.4252 2.17172 15.1422 2.68481 16.6095 3.64798C18.0769 4.61115 19.2305 5.98237 19.9285 7.59283C20.6265 9.20329 20.8384 10.9827 20.538 12.712C20.2377 14.4414 19.4382 16.0451 18.238 17.3259L21.327 20.4149L19.913 21.8289L16.712 18.6289C15.546 19.4168 14.2116 19.9203 12.8157 20.099C11.4199 20.2777 10.0016 20.1266 8.67474 19.6578C7.34789 19.189 6.14945 18.4157 5.17566 17.3998C4.20188 16.3839 3.47989 15.1538 3.06766 13.8083C2.65543 12.4628 2.56446 11.0394 2.80206 9.65234C3.03965 8.26532 3.59918 6.95333 4.43572 5.82174C5.27226 4.69015 6.3625 3.77049 7.61888 3.13662C8.87527 2.50275 10.2628 2.17232 11.67 2.17188ZM11.67 4.17188C10.7508 4.17188 9.84051 4.35294 8.99123 4.70472C8.14195 5.0565 7.37028 5.57212 6.72027 6.22213C6.07026 6.87214 5.55464 7.64381 5.20286 8.49309C4.85107 9.34237 4.67001 10.2526 4.67001 11.1719C4.67001 12.0911 4.85107 13.0014 5.20286 13.8507C5.55464 14.6999 6.07026 15.4716 6.72027 16.1216C7.37028 16.7716 8.14195 17.2872 8.99123 17.639C9.84051 17.9908 10.7508 18.1719 11.67 18.1719C13.5265 18.1719 15.307 17.4344 16.6198 16.1216C17.9325 14.8089 18.67 13.0284 18.67 11.1719C18.67 9.31536 17.9325 7.53488 16.6198 6.22213C15.307 4.90937 13.5265 4.17188 11.67 4.17188Z" fill="#121619"/>
</svg>
