<svg width="16" height="16" viewBox="0 0 16 16" fill="none" xmlns="http://www.w3.org/2000/svg">
<path d="M4.09121 15.8867L8 13.8116L11.9088 15.8867C12.6026 16.2552 13.431 15.6632 13.2964 14.8688L12.5488 10.474L15.7099 7.36296C16.2781 6.80417 15.9641 5.82857 15.1805 5.7138L10.8112 5.07044L8.85832 1.07134C8.50841 0.358522 7.49457 0.349467 7.14168 1.07134L5.18879 5.07044L0.819458 5.7138C0.0359018 5.82857 -0.278117 6.80417 0.290107 7.36296L3.45123 10.474L2.70357 14.8688C2.56899 15.6632 3.39738 16.2582 4.09121 15.8867Z" fill="#5C6573"/>
<mask id="mask0" mask-type="alpha" maskUnits="userSpaceOnUse" x="0" y="0" width="16" height="16">
<path d="M4.09121 15.8867L8 13.8116L11.9088 15.8867C12.6026 16.2552 13.431 15.6632 13.2964 14.8688L12.5488 10.474L15.7099 7.36296C16.2781 6.80417 15.9641 5.82857 15.1805 5.7138L10.8112 5.07044L8.85832 1.07134C8.50841 0.358522 7.49457 0.349467 7.14168 1.07134L5.18879 5.07044L0.819458 5.7138C0.0359018 5.82857 -0.278117 6.80417 0.290107 7.36296L3.45123 10.474L2.70357 14.8688C2.56899 15.6632 3.39738 16.2582 4.09121 15.8867Z" fill="white"/>
</mask>
<g mask="url(#mask0)">
<rect width="16" height="16" fill="#EBBC49"/>
<rect width="16" height="16" fill="#E1BC29"/>
</g>
</svg>
