<svg width="49" height="48" viewBox="0 0 49 48" fill="none" xmlns="http://www.w3.org/2000/svg">
<g clip-path="url(#clip0_26369_209670)">
<path d="M33.5 40.7678L29.615 36.8828L27.5 38.9978L33.5 44.9978L45.5 32.9978L43.385 30.8828L33.5 40.7678Z" fill="#121619"/>
<path d="M38 7.5H33.5V6C33.4977 5.20506 33.1809 4.44333 32.6188 3.88122C32.0567 3.3191 31.2949 3.0023 30.5 3H18.5C17.7051 3.0023 16.9433 3.3191 16.3812 3.88122C15.8191 4.44333 15.5023 5.20506 15.5 6V7.5H11C10.2051 7.5023 9.44333 7.8191 8.88122 8.38122C8.3191 8.94333 8.0023 9.70506 8 10.5V42C8.0023 42.7949 8.3191 43.5567 8.88122 44.1188C9.44333 44.6809 10.2051 44.9977 11 45H24.5V42H11V10.5H15.5V15H33.5V10.5H38V27H41V10.5C40.9977 9.70506 40.6809 8.94333 40.1188 8.38122C39.5567 7.8191 38.7949 7.5023 38 7.5ZM30.5 12H18.5V6H30.5V12Z" fill="#121619"/>
</g>
<defs>
<clipPath id="clip0_26369_209670">
<rect width="48" height="48" fill="white" transform="translate(0.5)"/>
</clipPath>
</defs>
</svg>
